<svg width="542" height="119" viewBox="0 0 542 119" fill="none" xmlns="http://www.w3.org/2000/svg">
<path d="M190.872 54.048C184.301 54.048 179.267 56.0533 175.768 60.064C172.269 64.0747 170.52 69.7493 170.52 77.088C170.52 84.512 172.44 90.2293 176.28 94.24C180.205 98.2507 185.453 100.256 192.024 100.256C195.523 100.256 198.467 99.7867 200.856 98.848C203.331 97.9093 205.677 96.8427 207.896 95.648C209.347 96.8427 210.456 98.2933 211.224 100C212.077 101.621 212.504 103.541 212.504 105.76C212.504 109.259 210.541 112.245 206.616 114.72C202.776 117.109 196.888 118.304 188.952 118.304C183.235 118.304 177.859 117.493 172.824 115.872C167.789 114.251 163.395 111.776 159.64 108.448C155.885 105.035 152.899 100.768 150.68 95.648C148.547 90.4427 147.48 84.256 147.48 77.088C147.48 70.432 148.504 64.5867 150.552 59.552C152.685 54.432 155.544 50.1227 159.128 46.624C162.797 43.1253 167.064 40.48 171.928 38.688C176.792 36.896 181.997 36 187.544 36C195.395 36 201.453 37.28 205.72 39.84C210.072 42.4 212.248 45.6853 212.248 49.696C212.248 51.9147 211.693 53.8347 210.584 55.456C209.475 57.0773 208.195 58.3573 206.744 59.296C204.525 57.8453 202.136 56.608 199.576 55.584C197.101 54.56 194.2 54.048 190.872 54.048ZM222.269 36.512C222.269 33.2693 223.336 30.5387 225.469 28.32C227.688 26.1013 230.589 24.992 234.173 24.992C237.757 24.992 240.616 26.1013 242.749 28.32C244.968 30.5387 246.077 33.2693 246.077 36.512C246.077 39.7547 244.968 42.4853 242.749 44.704C240.616 46.9227 237.757 48.032 234.173 48.032C230.589 48.032 227.688 46.9227 225.469 44.704C223.336 42.4853 222.269 39.7547 222.269 36.512ZM245.053 115.872C244.114 116.043 242.706 116.256 240.829 116.512C239.037 116.853 237.202 117.024 235.325 117.024C233.448 117.024 231.741 116.896 230.205 116.64C228.754 116.384 227.517 115.872 226.493 115.104C225.469 114.336 224.658 113.312 224.061 112.032C223.549 110.667 223.293 108.917 223.293 106.784V54.688C224.232 54.5173 225.597 54.304 227.389 54.048C229.266 53.7067 231.144 53.536 233.021 53.536C234.898 53.536 236.562 53.664 238.013 53.92C239.549 54.176 240.829 54.688 241.853 55.456C242.877 56.224 243.645 57.2907 244.157 58.656C244.754 59.936 245.053 61.6427 245.053 63.776V115.872ZM300.506 114.336C299.311 115.275 297.562 116.043 295.258 116.64C292.954 117.237 290.351 117.536 287.45 117.536C284.122 117.536 281.221 117.109 278.746 116.256C276.357 115.403 274.693 114.037 273.754 112.16C272.986 110.709 272.047 108.704 270.938 106.144C269.914 103.499 268.805 100.597 267.61 97.44C266.415 94.1973 265.178 90.7413 263.898 87.072C262.618 83.4027 261.381 79.776 260.186 76.192C259.077 72.608 258.053 69.152 257.114 65.824C256.175 62.496 255.407 59.552 254.81 56.992C256.005 55.7973 257.583 54.7733 259.546 53.92C261.594 52.9813 263.813 52.512 266.202 52.512C269.189 52.512 271.621 53.152 273.498 54.432C275.461 55.6267 276.911 57.9307 277.85 61.344L282.842 80.928C283.781 84.768 284.677 88.2667 285.53 91.424C286.383 94.496 287.023 96.8853 287.45 98.592H288.09C289.711 92.2773 291.418 85.28 293.21 77.6C295.002 69.92 296.623 62.368 298.074 54.944C299.525 54.176 301.146 53.5787 302.938 53.152C304.815 52.7253 306.607 52.512 308.314 52.512C311.301 52.512 313.818 53.152 315.866 54.432C317.914 55.712 318.938 57.9307 318.938 61.088C318.938 62.4533 318.597 64.4587 317.914 67.104C317.317 69.664 316.506 72.608 315.482 75.936C314.543 79.1787 313.391 82.6347 312.026 86.304C310.746 89.9733 309.423 93.5573 308.058 97.056C306.693 100.555 305.327 103.84 303.962 106.912C302.682 109.899 301.53 112.373 300.506 114.336ZM328.144 36.512C328.144 33.2693 329.211 30.5387 331.344 28.32C333.563 26.1013 336.464 24.992 340.048 24.992C343.632 24.992 346.491 26.1013 348.624 28.32C350.843 30.5387 351.952 33.2693 351.952 36.512C351.952 39.7547 350.843 42.4853 348.624 44.704C346.491 46.9227 343.632 48.032 340.048 48.032C336.464 48.032 333.563 46.9227 331.344 44.704C329.211 42.4853 328.144 39.7547 328.144 36.512ZM350.928 115.872C349.989 116.043 348.581 116.256 346.704 116.512C344.912 116.853 343.077 117.024 341.2 117.024C339.323 117.024 337.616 116.896 336.08 116.64C334.629 116.384 333.392 115.872 332.368 115.104C331.344 114.336 330.533 113.312 329.936 112.032C329.424 110.667 329.168 108.917 329.168 106.784V54.688C330.107 54.5173 331.472 54.304 333.264 54.048C335.141 53.7067 337.019 53.536 338.896 53.536C340.773 53.536 342.437 53.664 343.888 53.92C345.424 54.176 346.704 54.688 347.728 55.456C348.752 56.224 349.52 57.2907 350.032 58.656C350.629 59.936 350.928 61.6427 350.928 63.776V115.872ZM386.541 94.624C386.541 96.8427 387.224 98.4213 388.589 99.36C390.04 100.299 392.045 100.768 394.605 100.768C395.885 100.768 397.208 100.683 398.573 100.512C399.938 100.256 401.133 99.9573 402.157 99.616C402.925 100.555 403.565 101.621 404.077 102.816C404.674 103.925 404.973 105.291 404.973 106.912C404.973 110.155 403.736 112.8 401.261 114.848C398.872 116.896 394.605 117.92 388.461 117.92C380.952 117.92 375.149 116.213 371.053 112.8C367.042 109.387 365.037 103.84 365.037 96.16V41.376C365.976 41.12 367.298 40.864 369.005 40.608C370.797 40.2667 372.674 40.096 374.637 40.096C378.392 40.096 381.293 40.7787 383.341 42.144C385.474 43.424 386.541 46.1973 386.541 50.464V58.656H403.309C403.821 59.5947 404.29 60.7893 404.717 62.24C405.229 63.6053 405.485 65.1413 405.485 66.848C405.485 69.8347 404.802 72.0107 403.437 73.376C402.157 74.656 400.408 75.296 398.189 75.296H386.541V94.624ZM442.655 102.176C444.106 102.176 445.684 102.048 447.391 101.792C449.183 101.451 450.506 101.024 451.359 100.512V90.272L442.143 91.04C439.754 91.2107 437.791 91.7227 436.255 92.576C434.719 93.4293 433.951 94.7093 433.951 96.416C433.951 98.1227 434.591 99.5307 435.871 100.64C437.236 101.664 439.498 102.176 442.655 102.176ZM441.631 51.872C446.239 51.872 450.42 52.3413 454.175 53.28C458.015 54.2187 461.258 55.6693 463.903 57.632C466.634 59.5093 468.724 61.9413 470.175 64.928C471.626 67.8293 472.351 71.2853 472.351 75.296V103.968C472.351 106.187 471.711 108.021 470.431 109.472C469.236 110.837 467.786 112.032 466.079 113.056C460.532 116.384 452.724 118.048 442.655 118.048C438.132 118.048 434.036 117.621 430.367 116.768C426.783 115.915 423.668 114.635 421.023 112.928C418.463 111.221 416.458 109.045 415.007 106.4C413.642 103.755 412.959 100.683 412.959 97.184C412.959 91.296 414.708 86.7733 418.207 83.616C421.706 80.4587 427.124 78.496 434.463 77.728L451.231 75.936V75.04C451.231 72.5653 450.122 70.816 447.903 69.792C445.77 68.6827 442.655 68.128 438.559 68.128C435.316 68.128 432.159 68.4693 429.087 69.152C426.015 69.8347 423.242 70.688 420.767 71.712C419.658 70.944 418.719 69.792 417.951 68.256C417.183 66.6347 416.799 64.9707 416.799 63.264C416.799 61.0453 417.311 59.296 418.335 58.016C419.444 56.6507 421.108 55.4987 423.327 54.56C425.802 53.6213 428.703 52.9387 432.031 52.512C435.444 52.0853 438.644 51.872 441.631 51.872ZM538.136 97.44C538.136 103.925 535.704 109.003 530.84 112.672C525.976 116.341 518.808 118.176 509.336 118.176C505.752 118.176 502.424 117.92 499.352 117.408C496.28 116.896 493.635 116.128 491.416 115.104C489.283 113.995 487.576 112.629 486.296 111.008C485.101 109.387 484.504 107.467 484.504 105.248C484.504 103.2 484.931 101.493 485.784 100.128C486.637 98.6773 487.661 97.4827 488.856 96.544C491.331 97.9093 494.147 99.1467 497.304 100.256C500.547 101.28 504.259 101.792 508.44 101.792C511.085 101.792 513.091 101.408 514.456 100.64C515.907 99.872 516.632 98.848 516.632 97.568C516.632 96.3733 516.12 95.4347 515.096 94.752C514.072 94.0693 512.365 93.5147 509.976 93.088L506.136 92.32C498.712 90.8693 493.165 88.608 489.496 85.536C485.912 82.3787 484.12 77.8987 484.12 72.096C484.12 68.9387 484.803 66.08 486.168 63.52C487.533 60.96 489.453 58.8267 491.928 57.12C494.403 55.4133 497.347 54.0907 500.76 53.152C504.259 52.2133 508.099 51.744 512.28 51.744C515.437 51.744 518.381 52 521.112 52.512C523.928 52.9387 526.36 53.6213 528.408 54.56C530.456 55.4987 532.077 56.736 533.272 58.272C534.467 59.7227 535.064 61.472 535.064 63.52C535.064 65.4827 534.68 67.1893 533.912 68.64C533.229 70.0053 532.333 71.1573 531.224 72.096C530.541 71.6693 529.517 71.2427 528.152 70.816C526.787 70.304 525.293 69.8773 523.672 69.536C522.051 69.1093 520.387 68.768 518.68 68.512C517.059 68.256 515.565 68.128 514.2 68.128C511.384 68.128 509.208 68.4693 507.672 69.152C506.136 69.7493 505.368 70.7307 505.368 72.096C505.368 73.0347 505.795 73.8027 506.648 74.4C507.501 74.9973 509.123 75.552 511.512 76.064L515.48 76.96C523.672 78.8373 529.475 81.44 532.888 84.768C536.387 88.0107 538.136 92.2347 538.136 97.44Z" fill="white"/>
<path d="M0 48.8385C0 21.8658 21.8657 0 48.8385 0V67.4643C48.8385 94.437 26.9728 116.303 0 116.303V48.8385Z" fill="url(#paint0_linear_1_10)"/>
<path d="M55.9231 26.5384C55.9231 11.8816 67.8048 0 82.4616 0C97.1183 0 109 11.8817 109 26.5384V28.0707C109 42.7274 97.1183 54.6091 82.4616 54.6091C67.8048 54.6091 55.9231 42.7274 55.9231 28.0706V26.5384Z" fill="url(#paint1_linear_1_10)"/>
<path d="M55.9231 88.2322C55.9231 73.5754 67.8048 61.6937 82.4616 61.6937C97.1183 61.6937 109 73.5754 109 88.2322V89.7644C109 104.421 97.1183 116.303 82.4616 116.303C67.8048 116.303 55.9231 104.421 55.9231 89.7644V88.2322Z" fill="url(#paint2_linear_1_10)"/>
<defs>
<linearGradient id="paint0_linear_1_10" x1="24.4192" y1="0" x2="24.4192" y2="116.303" gradientUnits="userSpaceOnUse">
<stop stop-color="white"/>
<stop offset="0.34375" stop-color="#F3F3F3"/>
<stop offset="0.692708" stop-color="#E4E4E4"/>
<stop offset="1" stop-color="#D1D1D1"/>
</linearGradient>
<linearGradient id="paint1_linear_1_10" x1="105.435" y1="-2.92418e-06" x2="60.1946" y2="44.7635" gradientUnits="userSpaceOnUse">
<stop stop-color="#FF8A00"/>
<stop offset="0.822917" stop-color="#FC4600"/>
<stop offset="1" stop-color="#FA0000"/>
</linearGradient>
<linearGradient id="paint2_linear_1_10" x1="82.4616" y1="61.6937" x2="82.4616" y2="116.303" gradientUnits="userSpaceOnUse">
<stop stop-color="#00C9FF"/>
<stop offset="0.75" stop-color="#00E6FF"/>
<stop offset="1" stop-color="#00FFFF"/>
</linearGradient>
</defs>
</svg>
